<?xml version="1.0" encoding="utf-8"?>
<!-- Generator: Adobe Illustrator 27.9.0, SVG Export Plug-In . SVG Version: 6.00 Build 0)  -->
<svg version="1.1" id="Warstwa_1" xmlns="http://www.w3.org/2000/svg" xmlns:xlink="http://www.w3.org/1999/xlink" x="0px" y="0px"
	 viewBox="0 0 480 510" style="enable-background:new 0 0 480 510;" xml:space="preserve">
<style type="text/css">
	.st0{fill:none;}
	.st1{clip-path:url(#SVGID_00000089568296494242207470000011705142200978713787_);fill:#954C4A;}
	.st2{clip-path:url(#SVGID_00000117674639688853386200000001200053685968551311_);enable-background:new    ;}
	.st3{fill:#4D4D4D;}
	.st4{font-family:'Times-Bold';}
	.st5{font-size:10px;}
	.st6{font-family:'Times-Roman';}
	.st7{font-size:11px;}
	.st8{fill:#1D1D1B;}
	.st9{font-family:'TimesNewRomanPS-BoldMT';}
	.st10{font-size:13.2px;}
	.st11{enable-background:new    ;}
	.st12{fill:#A3AABE;}
	.st13{fill:#FFFFFF;}
	.st14{font-family:'TimesNewRomanPSMT';}
</style>
<rect class="st0" width="480" height="480"/>
<g>
	<defs>
		<rect id="SVGID_1_" width="480" height="480"/>
	</defs>
	<clipPath id="SVGID_00000057115674409915601140000014203809433644991628_">
		<use xlink:href="#SVGID_1_"  style="overflow:visible;"/>
	</clipPath>
</g>
<g>
	<defs>
		<rect id="SVGID_00000163035144758060457410000012602424692547680919_" x="5.5" y="53.4" width="469" height="422.6"/>
	</defs>
	<clipPath id="SVGID_00000005257396547505588370000017929046646545390503_">
		<use xlink:href="#SVGID_00000163035144758060457410000012602424692547680919_"  style="overflow:visible;"/>
	</clipPath>
	
		<rect x="26.8" y="296.7" style="clip-path:url(#SVGID_00000005257396547505588370000017929046646545390503_);fill:#954C4A;" width="32.8" height="160.1"/>
	
		<rect x="92.4" y="264.7" style="clip-path:url(#SVGID_00000005257396547505588370000017929046646545390503_);fill:#954C4A;" width="32.8" height="192.1"/>
	
		<rect x="158" y="264.7" style="clip-path:url(#SVGID_00000005257396547505588370000017929046646545390503_);fill:#954C4A;" width="32.8" height="192.1"/>
	
		<rect x="223.6" y="232.7" style="clip-path:url(#SVGID_00000005257396547505588370000017929046646545390503_);fill:#954C4A;" width="32.8" height="224.1"/>
	
		<rect x="289.2" y="232.7" style="clip-path:url(#SVGID_00000005257396547505588370000017929046646545390503_);fill:#954C4A;" width="32.8" height="224.1"/>
	
		<rect x="354.8" y="72.6" style="clip-path:url(#SVGID_00000005257396547505588370000017929046646545390503_);fill:#954C4A;" width="32.8" height="384.2"/>
	
		<rect x="420.4" y="232.7" style="clip-path:url(#SVGID_00000005257396547505588370000017929046646545390503_);fill:#954C4A;" width="32.8" height="224.1"/>
</g>
<g>
	<defs>
		<rect id="SVGID_00000078750125199112753100000005724849813576857729_" y="-4" width="480" height="480"/>
	</defs>
	<clipPath id="SVGID_00000167385787675152310810000002222943895070024885_">
		<use xlink:href="#SVGID_00000078750125199112753100000005724849813576857729_"  style="overflow:visible;"/>
	</clipPath>
	<g style="clip-path:url(#SVGID_00000167385787675152310810000002222943895070024885_);enable-background:new    ;">
		<text transform="matrix(1 0 0 1 33.4117 468.67)" class="st3 st4 st5">2019</text>
	</g>
	<g style="clip-path:url(#SVGID_00000167385787675152310810000002222943895070024885_);enable-background:new    ;">
		<text transform="matrix(1 0 0 1 99.0117 468.67)" class="st3 st4 st5">2020</text>
	</g>
	<g style="clip-path:url(#SVGID_00000167385787675152310810000002222943895070024885_);enable-background:new    ;">
		<text transform="matrix(1 0 0 1 164.6117 468.67)" class="st3 st4 st5">2021</text>
	</g>
	<g style="clip-path:url(#SVGID_00000167385787675152310810000002222943895070024885_);enable-background:new    ;">
		<text transform="matrix(1 0 0 1 230.2117 468.67)" class="st3 st4 st5">2022</text>
	</g>
	<g style="clip-path:url(#SVGID_00000167385787675152310810000002222943895070024885_);enable-background:new    ;">
		<text transform="matrix(1 0 0 1 295.8118 468.67)" class="st3 st4 st5">2023</text>
	</g>
	<g style="clip-path:url(#SVGID_00000167385787675152310810000002222943895070024885_);enable-background:new    ;">
		<text transform="matrix(1 0 0 1 361.4117 468.67)" class="st3 st4 st5">2024</text>
	</g>
	<g style="clip-path:url(#SVGID_00000167385787675152310810000002222943895070024885_);enable-background:new    ;">
		<text transform="matrix(1 0 0 1 427.0117 468.67)" class="st3 st4 st5">2025</text>
	</g>
	<g style="clip-path:url(#SVGID_00000167385787675152310810000002222943895070024885_);enable-background:new    ;">
		<rect x="22.9" y="34.5" class="st0" width="434.3" height="22.8"/>
		<text transform="matrix(1 0 0 1 22.86 43.6027)"><tspan x="0" y="0" class="st6 st7">Last year saw a decline in the already low percentage of female directors of photography </tspan><tspan x="0" y="13.2" class="st6 st7">working on top 250 grossing U.S. films. </tspan></text>
	</g>
	<g style="clip-path:url(#SVGID_00000167385787675152310810000002222943895070024885_);enable-background:new    ;">
		<text transform="matrix(1 0 0 1 22.86 27.7827)" class="st8 st9 st10">Female Cinematographers in Top-Grossing Films Are Rare</text>
	</g>
	<g style="clip-path:url(#SVGID_00000167385787675152310810000002222943895070024885_);">
	</g>
</g>
<rect x="28.8" y="482.6" class="st0" width="434.3" height="64.7"/>
<text transform="matrix(1 0 0 1 28.8405 490.9427)" class="st11"><tspan x="0" y="0" class="st12 st6 st5">Source: The Celluloid Ceiling: Employment of Behind-the-Scenes Women on Top Grossing U.S. Films in </tspan><tspan x="0" y="12" class="st12 st6 st5">2025 by Dr. Martha M. Lauzen</tspan></text>
<text transform="matrix(1 0 0 1 37 313)" class="st13 st14 st5">5%</text>
<text transform="matrix(1 0 0 1 103 282)" class="st13 st14 st5">6%</text>
<text transform="matrix(1 0 0 1 233 250)" class="st13 st14 st5">7%</text>
<text transform="matrix(1 0 0 1 361.5817 89.2202)" class="st13 st14 st5">12%</text>
<text transform="matrix(1 0 0 1 166.7816 280.2803)" class="st13 st14 st5">6%</text>
<text transform="matrix(1 0 0 1 299 250)" class="st13 st9 st5">7%</text>
<text transform="matrix(1 0 0 1 431 250)" class="st13 st14 st5">7%</text>
</svg>
